<?xml version="1.0" encoding="UTF-8"?>
<!DOCTYPE svg PUBLIC "-//W3C//DTD SVG 1.1//EN" "http://www.w3.org/Graphics/SVG/1.1/DTD/svg11.dtd">
<!-- Creator: CorelDRAW X7 -->
<svg xmlns="http://www.w3.org/2000/svg" xml:space="preserve" width="134.938mm" height="38.6093mm" version="1.1" style="shape-rendering:geometricPrecision; text-rendering:geometricPrecision; image-rendering:optimizeQuality; fill-rule:evenodd; clip-rule:evenodd"
viewBox="0 0 11685 3343"
 xmlns:xlink="http://www.w3.org/1999/xlink">
 <defs>
  <style type="text/css">
   <![CDATA[
    .fil0 {fill:#FEFEFE}
    .fil1 {fill:#09133C}
    .fil3 {fill:#1450FF}
    .fil2 {fill:#14B4FF}
   ]]>
  </style>
 </defs>
 <g id="Layer_x0020_1">
  <metadata id="CorelCorpID_0Corel-Layer"/>
  <rect class="fil0" width="11685" height="3343"/>
  <path class="fil1" d="M5077 1085l-379 0c-23,39 -28,61 -64,105 -90,109 -226,163 -377,122 -160,-45 -284,-205 -283,-412 2,-389 436,-553 662,-274 13,15 24,34 35,52 6,11 22,52 31,57l376 0c-29,-169 -144,-321 -270,-419 -214,-165 -546,-199 -807,-63 -65,34 -102,65 -152,109 -128,111 -237,317 -238,541 0,105 22,200 58,287 98,238 321,413 591,447 212,27 412,-38 543,-137 62,-47 126,-109 169,-175 23,-37 42,-68 62,-112 15,-33 37,-90 43,-128zm5932 -120l-483 1c10,-56 50,-108 82,-132 131,-100 361,-52 401,131zm282 318c-35,-3 -215,-1 -265,-1 -15,0 -52,-4 -63,3 -8,5 -42,63 -116,86 -158,50 -311,-54 -325,-190l798 0c19,-68 4,-183 -13,-248 -52,-195 -199,-356 -416,-405 -165,-38 -326,6 -438,84 -243,171 -323,513 -164,767 161,258 495,352 751,199 49,-30 112,-80 148,-126 36,-47 78,-102 103,-169zm-3121 -172c-15,-156 90,-280 226,-295 153,-18 268,100 282,236 16,156 -88,282 -225,298 -155,18 -269,-102 -283,-239zm194 -592c-179,16 -297,94 -380,191 -141,166 -182,440 -63,652 70,123 168,215 311,258 80,25 165,35 255,26 333,-30 541,-319 508,-624 -33,-307 -285,-535 -631,-503zm1049 145l-1 -113 -296 0c-4,31 -1,731 -1,799 0,41 -5,244 1,267l316 0c4,-20 1,-454 1,-487 0,-70 -6,-165 21,-224 26,-56 73,-90 154,-92 83,-2 131,29 156,87 25,59 19,155 19,224 0,163 -2,328 0,491l319 0c1,-161 0,-322 0,-483 0,-204 26,-448 -169,-558 -52,-29 -116,-51 -186,-58 -95,-10 -216,13 -278,81 -6,5 -10,8 -15,15 -10,11 -35,48 -41,51zm-2110 548l-319 -1c-6,2 -6,4 -13,15 -3,6 -6,11 -10,17 -60,89 -167,131 -279,102 -258,-66 -240,-474 0,-527 62,-14 145,-4 192,24 49,28 79,65 106,119l321 1c-4,-58 -51,-150 -76,-189 -109,-173 -317,-276 -542,-256 -283,25 -507,261 -508,562 -1,305 222,535 501,568 229,27 430,-77 546,-249 29,-41 72,-126 81,-186zm-2000 760l334 0c11,-9 60,-152 69,-176 22,-60 44,-118 67,-177l267 -712c9,-25 129,-339 132,-356l-336 0 -203 618c-6,-4 -2,1 -6,-5 -1,-2 -1,-3 -2,-5 -17,-41 -56,-163 -71,-206l-131 -381c-4,-12 -3,-19 -14,-21l-332 0c4,20 24,65 33,87l314 803c12,31 23,60 35,90 15,39 15,26 -11,88 -25,59 -48,116 -72,175 -12,28 -68,159 -73,178zm4789 840l0 -522c96,0 189,-10 252,45 51,44 83,119 83,216 1,100 -26,171 -80,215 -67,55 -156,46 -255,46zm-242 212c33,3 269,1 322,1 290,-1 496,-134 497,-474 1,-172 -72,-343 -226,-421 -130,-66 -283,-53 -431,-53 -48,0 -116,-4 -161,1l-1 946zm-676 -212l0 -522c118,-5 224,-8 288,84 9,13 19,33 25,51 15,38 22,81 23,126 0,91 -26,173 -82,216 -64,50 -158,49 -254,45zm-241 213c109,0 217,0 325,0 101,-1 189,-15 269,-54 138,-68 224,-209 225,-420 0,-107 -21,-183 -64,-262 -90,-164 -247,-211 -432,-212 -108,0 -215,0 -324,0l1 948zm-1516 -1409l316 1 1 -1420 -318 -1c-5,37 -1,978 -1,1064 0,48 -5,336 2,356zm3310 1095c-11,196 107,311 287,329 200,20 352,-59 380,-232 36,-214 -115,-282 -261,-348 -37,-16 -126,-52 -144,-87 -29,-55 21,-128 101,-109 57,14 53,67 63,90l238 0c-3,-105 -39,-174 -94,-218 -57,-46 -134,-78 -231,-76 -172,2 -332,116 -325,290 9,193 194,239 319,297 35,17 76,35 90,64 39,78 -57,171 -139,110 -30,-23 -41,-57 -44,-110l-240 0z"/>
  <path class="fil2" d="M1777 1965l-510 595 596 -99 518 -598 -604 102zm181 -1052l-1245 717 1264 -209 960 -670 -979 162z"/>
  <path class="fil3" d="M1267 2560l276 464 279 -45 279 -558 -834 139zm-554 -930l272 466 1396 -233 279 -555 -1947 322zm2224 -879l282 -558 -3069 512 277 461 2510 -415z"/>
 </g>
</svg>
